<svg width="24" height="24" xmlns="http://www.w3.org/2000/svg" xmlns:undefined="http://www.bohemiancoding.com/sketch/ns" xml:space="preserve" version="1.1" stroke-miterlimit="1.4142" stroke-linejoin="round" fill-rule="evenodd" clip-rule="evenodd">

 <g>
  <title>Layer 1</title>
  <path id="svg_1" fill-rule="nonzero" fill="#45403d" d="m19,20l-15,0c-1.11,0 -2,-0.9 -2,-2l0,-12c0,-1.11 0.89,-2 2,-2l6,0l2,2l7,0c1.097,0 2,0.903 2,2l-17,0l0,10l2.14,-8l17.07,0l-2.28,8.5c-0.23,0.87 -1.01,1.5 -1.93,1.5z"/>
  <g id="svg_2" fill="#bbdefb" transform="matrix(.67606 0 0 .67606 9.1073 7.3873)"/>
  <g stroke="null">
   <!-- Generator: Sketch 3.3.2 (12043) - http://www.bohemiancoding.com/sketch -->
   <title stroke="null">Group</title>
   <desc stroke="null">Created with Sketch.</desc>

   <g stroke="null"  fill-rule="evenodd" fill="none" id="svg_3">
    <g stroke="null" transform="translate(-150 -538)"  id="svg_4">
     <g stroke="null"  transform="translate(0 413)" id="svg_5">
      <g stroke="null" id="svg_6" transform="translate(150 125)">
       <g stroke="null">
        <path stroke="null" fill="#FFFFFF" d="m17.18687,14.09687l-0.00729,-2.09687l-1.09413,0l0.00729,2.09687l0.54707,0.80289l0.54707,-0.80289z"/>
        <path stroke="null" fill="#FFFFFF" d="m16.09274,17.69038l0,2.10466l1.09413,0l0,-2.10466l-0.54707,-0.80289l-0.54707,0.80289z"/>
        <path stroke="null" fill="#00F2E6" d="m17.18687,17.69038l1.15248,1.69932l0.8826,-0.68596l-1.15248,-1.69932l-0.8826,-0.30401l0,0.98997z"/>
        <path stroke="null" fill="#00F2E6" d="m16.09274,14.09687l-1.15978,-1.69932l-0.8826,0.68596l1.15248,1.69932l0.88989,0.30401l0,-0.98997z"/>
        <path stroke="null" fill="#00B9F1" d="m15.20285,14.78283l-1.86732,-0.64699l-0.33553,1.1069l1.86732,0.65478l0.8826,-0.3118l-0.54707,-0.80289z"/>
        <path stroke="null" fill="#00B9F1" d="m17.52241,16.20153l0.54707,0.80289l1.86732,0.64699l0.33553,-1.1069l-1.86732,-0.64699l-0.8826,0.30401z"/>
        <path stroke="null" fill="#D63AFF" d="m18.40501,15.89752l1.86732,-0.65478l-0.33553,-1.1069l-1.86732,0.64699l-0.54707,0.80289l0.8826,0.3118z"/>
        <path stroke="null" fill="#D63AFF" d="m14.86732,15.89752l-1.86732,0.64699l0.33553,1.1069l1.86732,-0.64699l0.54707,-0.80289l-0.8826,-0.30401z"/>
        <path stroke="null" fill="#FB015B" d="m15.20285,17.00442l-1.15248,1.69932l0.8826,0.68596l1.15978,-1.69932l0,-0.98997l-0.88989,0.30401z"/>
        <path stroke="null" fill="#FB015B" d="m18.06947,14.78283l1.15248,-1.69932l-0.8826,-0.68596l-1.15248,1.69932l0,0.98997l0.8826,-0.30401z"/>
       </g>
      </g>
     </g>
    </g>
   </g>
  </g>
 </g>
</svg>