<svg viewBox="0 0 22 17" xmlns="http://www.w3.org/2000/svg"><g fill="none"><path d="m17 16h-15c-1.11 0-2-.9-2-2v-12c0-1.11.89-2 2-2h6l2 2h7c1.097 0 2 .903 2 2h-17v10l2.14-8h17.07l-2.28 8.5c-.23.87-1.01 1.5-1.93 1.5z" fill="#45403d"/><path d="m14.976132 17h5.9478811c.1889109 0 .3745215-.0461823.5381122-.133969.1636172-.0877614.2994588-.2140165.3938746-.3660689.0944158-.1520271.1440001-.3244898.1440001-.5000127 0-.1755482-.0499011-.3479602-.1444753-.4999115l-3.9944291-6.42856417c-.0944158-.15200182-.230231-.27822656-.3937953-.36598801-.1635644-.08776145-.3491221-.13396646-.5380066-.13396646s-.3744159.04620501-.5380066.13396646c-.1635644.08776145-.2993796.21398619-.3937954.36598801l-1.0213597 1.64483167-1.9969109-3.21642427c-.0944951-.15198918-.2303631-.27819672-.3939802-.36594249-.1636172-.08774551-.3492013-.13393864-.5381122-.13393864s-.3744951.04619313-.5381122.13393864c-.1636172.08774577-.2994852.21395331-.3939802.36594249l-4.97056528 8.00015677c-.09456132.1519513-.14447102.3243633-.14447102.4999115 0 .1755229.04958389.3479856.14400264.5000127.09441874.1520524.23026006.2783075.39386402.3660689.16360132.0877867.34919604.133969.53811485.133969h3.73357619c1.4792871 0 2.5702178-.6037583 3.3208713-1.7816586l1.8224422-2.9325982.976132-1.5694378 2.9296106 4.7142315h-3.9057426zm-4.2274324-1.5710564-2.60556826-.0005564 3.90573996-6.28528292 1.9488052 3.14263892-1.3048185 2.1004831c-.4985082.764258-1.0648184 1.0427173-1.9441584 1.0427173z" fill="#00dc82"/></g></svg>