<svg width="24" height="24" xmlns="http://www.w3.org/2000/svg" clip-rule="evenodd" fill-rule="evenodd" stroke-linejoin="round" stroke-miterlimit="1.414">
 <g>
  <title>Layer 1</title>
  <path fill="#45403d" d="m10,4l-6,0c-1.11,0 -2,0.89 -2,2l0,12c0,1.097 0.903,2 2,2l16,0c1.097,0 2,-0.903 2,-2l0,-10a2,2 0 0 0 -2,-2l-8,0l-2,-2z" fill-rule="nonzero" id="svg_1"/>
  <path d="m20.90153,18.83457l0,-6.50208l-9.94305,0l0,6.50208l9.94305,0m0,-8.66943a1.24288,1.08368 0 0 1 1.24288,1.08368l0,7.58576a1.24288,1.08368 0 0 1 -1.24288,1.08368l-9.94305,0a1.24288,1.08368 0 0 1 -1.24288,-1.08368l0,-7.58576a1.24288,1.08368 0 0 1 1.24288,-1.08368l9.94305,0m-4.35009,7.58576l0,-1.08368l3.1072,0l0,1.08368l-3.1072,0m-2.12533,-2.16736l-2.49198,-2.16736l1.75867,0l2.05076,1.78807c0.24237,0.21131 0.24237,0.55809 0,0.76941l-2.03832,1.77723l-1.75867,0l2.47955,-2.16736z" fill="#ff7043" id="svg_3"/>
 </g>

</svg>