<svg width="24" height="24" xmlns="http://www.w3.org/2000/svg" xml:space="preserve" version="1.1" stroke-miterlimit="1.4142" stroke-linejoin="round" fill-rule="evenodd" clip-rule="evenodd">

 <g>
  <title>Layer 1</title>
  <path id="svg_1" fill-rule="nonzero" fill="#45403d" d="m10,4l-6,0c-1.11,0 -2,0.89 -2,2l0,12c0,1.097 0.903,2 2,2l16,0c1.097,0 2,-0.903 2,-2l0,-10c0,-1.11 -0.9,-2 -2,-2l-8,0l-2,-2z"/>
  <g transform="rotate(-0.213339, 18.1503, 13.2585)">
   <path fill="#ff7043" d="m17.78413,8.85846a0.34793,0.34215 0 0 1 0.69595,0a0.34793,0.34215 0 0 1 -0.69595,0m-4.15109,3.09822a0.34793,0.34215 0 0 1 0.69595,0a0.34793,0.34215 0 0 1 -0.69595,0m8.30197,0.01595a0.34793,0.34215 0 0 1 0.69595,0a0.34793,0.34215 0 0 1 -0.69595,0m-7.29474,0.46889a0.31774,0.31246 0 0 0 0.16131,-0.4122l-0.15437,-0.3434l0.60714,0l0,2.6913l-1.22492,0a4.28406,4.21298 0 0 1 -0.13874,-1.60825l0.74959,-0.32745zm2.53974,0.06611l0,-0.79327l1.44584,0c0.07465,0 0.52731,0.08484 0.52731,0.41768c0,0.27643 -0.34715,0.37549 -0.63264,0.37549l-1.34051,0.0001zm-1.97393,4.27111a0.34793,0.34215 0 0 1 0.69595,0a0.34793,0.34215 0 0 1 -0.69595,0m5.15578,0.01595a0.34793,0.34215 0 0 1 0.69595,0a0.34793,0.34215 0 0 1 -0.69595,0m0.10757,-0.77597a0.31715,0.31189 0 0 0 -0.37675,0.24002l-0.1746,0.80153a4.28406,4.21298 0 0 1 -3.57267,-0.01681l-0.1746,-0.80153a0.31715,0.31189 0 0 0 -0.37655,-0.23992l-0.7196,0.15191a4.28406,4.21298 0 0 1 -0.37206,-0.43122l3.50115,0c0.03967,0 0.06605,-0.00711 0.06605,-0.04257l0,-1.21796c0,-0.03545 -0.02638,-0.04247 -0.06605,-0.04247l-1.02395,0l0,-0.77203l1.10748,0c0.10112,0 0.5405,0.02844 0.681,0.58083c0.04397,0.16988 0.14069,0.72245 0.20674,0.89934c0.06585,0.19841 0.33386,0.59476 0.61945,0.59476l1.80764,0a4.28406,4.21298 0 0 1 -0.39668,0.45159l-0.73601,-0.15546zm1.94413,-3.21573a4.28406,4.21298 0 0 1 0.00909,0.73139l-0.43957,0c-0.04397,0 -0.06165,0.02844 -0.06165,0.07081l0,0.19851c0,0.46725 -0.26791,0.56881 -0.50269,0.59476c-0.22355,0.02479 -0.47143,-0.09205 -0.50201,-0.22657c-0.1319,-0.72956 -0.35174,-0.88531 -0.69878,-1.15454c0.43078,-0.26903 0.87895,-0.66586 0.87895,-1.19691c0,-0.57362 -0.39981,-0.9348 -0.67231,-1.11188c-0.38242,-0.2479 -0.80567,-0.29747 -0.91989,-0.29747l-4.54581,0a4.28406,4.21298 0 0 1 2.3968,-1.33037l0.53581,0.55277a0.31686,0.3116 0 0 0 0.44846,0.01009l0.59961,-0.56391a4.28406,4.21298 0 0 1 2.9328,2.05427l-0.41046,0.91155a0.31813,0.31285 0 0 0 0.16141,0.4122l0.79024,0.34532zm1.02365,0.0148l-0.01397,-0.14095l0.42277,-0.38779c0.08598,-0.07879 0.05374,-0.23752 -0.05608,-0.27778l-0.5405,-0.1987l-0.04231,-0.13721l0.33708,-0.46043c0.06878,-0.09359 0.00567,-0.24309 -0.11011,-0.26173l-0.56991,-0.09118l-0.06839,-0.12587l0.23938,-0.51693c0.04905,-0.10521 -0.04201,-0.23982 -0.15985,-0.2354l-0.57841,0.01979l-0.09135,-0.10905l0.13288,-0.55402c0.02687,-0.11242 -0.0892,-0.22676 -0.20362,-0.20033l-0.56327,0.13058l-0.11099,-0.08984l0.02022,-0.56881c0.00449,-0.11511 -0.13259,-0.20514 -0.23938,-0.15729l-0.52555,0.2356l-0.12799,-0.06755l-0.09282,-0.56046c-0.01886,-0.11367 -0.17098,-0.17583 -0.26605,-0.10838l-0.46859,0.33149l-0.13923,-0.04151l-0.20205,-0.53153c-0.04104,-0.10829 -0.20244,-0.13951 -0.28237,-0.05534l-0.39434,0.41604l-0.14333,-0.01374l-0.30455,-0.48388c-0.06155,-0.09801 -0.22648,-0.09801 -0.28784,0l-0.30455,0.48388l-0.14333,0.01374l-0.39443,-0.41604c-0.08002,-0.08417 -0.24133,-0.05294 -0.28237,0.05534l-0.20215,0.53153l-0.13933,0.04151l-0.46849,-0.33149c-0.09516,-0.06755 -0.24719,-0.00528 -0.26605,0.10838l-0.09292,0.56046l-0.12799,0.06755l-0.52555,-0.2356c-0.10679,-0.04804 -0.24387,0.04218 -0.23938,0.15729l0.02013,0.56881l-0.11099,0.08984l-0.56327,-0.13067c-0.11441,-0.02613 -0.23058,0.08792 -0.20381,0.20043l0.13268,0.55402l-0.09116,0.10905l-0.57841,-0.01979c-0.11656,-0.00336 -0.2085,0.13019 -0.15994,0.2354l0.23967,0.51693l-0.06869,0.12587l-0.56981,0.09118c-0.11578,0.01845 -0.17851,0.16815 -0.11021,0.26173l0.33708,0.46043l-0.04231,0.13721l-0.5405,0.1987c-0.10972,0.04036 -0.14187,0.19889 -0.05608,0.27778l0.42287,0.38779l-0.01397,0.14095l-0.49194,0.2994c-0.09966,0.06053 -0.09966,0.22272 0,0.28306l0.49194,0.29949l0.01397,0.14095l-0.42287,0.38789c-0.08578,0.0786 -0.05364,0.23713 0.05608,0.27768l0.5405,0.1987l0.04231,0.13721l-0.33708,0.46053c-0.06849,0.09378 -0.00547,0.24328 0.11031,0.26164l0.56972,0.09109l0.06869,0.12606l-0.23967,0.51674c-0.04885,0.10502 0.04338,0.24021 0.16004,0.2355l0.57812,-0.01989l0.09135,0.10915l-0.13268,0.55421c-0.02687,0.11223 0.0894,0.22628 0.20381,0.19985l0.56327,-0.13039l0.11109,0.08955l-0.02022,0.56891c-0.00449,0.1152 0.13259,0.20523 0.23938,0.15719l0.52555,-0.2354l0.12799,0.06745l0.09282,0.56017c0.01886,0.11405 0.17098,0.17574 0.26625,0.10857l0.4682,-0.33178l0.13942,0.0418l0.20215,0.53134c0.04104,0.1079 0.20244,0.13971 0.28237,0.05515l0.39443,-0.41585l0.14333,0.01403l0.30455,0.48378c0.06136,0.09762 0.22628,0.09781 0.28784,0l0.30455,-0.48378l0.14333,-0.01403l0.39434,0.41585c0.07992,0.08455 0.24133,0.05275 0.28237,-0.05515l0.20205,-0.53134l0.13952,-0.0418l0.4683,0.33178c0.09516,0.06716 0.24719,0.00528 0.26595,-0.10857l0.09301,-0.56017l0.12799,-0.06755l0.52546,0.2355c0.10679,0.04804 0.24358,-0.0418 0.23938,-0.15719l-0.02013,-0.56881l0.11089,-0.08965l0.56327,0.13039c0.11441,0.02642 0.23058,-0.08763 0.20371,-0.19985l-0.13268,-0.55421l0.09106,-0.10915l0.57841,0.01989c0.11666,0.00461 0.20889,-0.13048 0.15985,-0.2355l-0.23938,-0.51674l0.06839,-0.12606l0.56991,-0.09109c0.11598,-0.01826 0.1789,-0.16786 0.11011,-0.26164l-0.33708,-0.46053l0.04231,-0.13721l0.5405,-0.1987c0.10992,-0.04055 0.14206,-0.19909 0.05608,-0.27768l-0.42277,-0.38789l0.01397,-0.14095l0.49194,-0.29949c0.09966,-0.06034 0.09976,-0.22243 0.0001,-0.28306l-0.49194,-0.2994z"/>
  </g>
 </g>
</svg>