<?xml version="1.0" encoding="UTF-8" standalone="no"?>
<svg
   clip-rule="evenodd"
   fill-rule="evenodd"
   stroke-linejoin="round"
   stroke-miterlimit="1.414"
   viewBox="0 0 24 24"
   xml:space="preserve"
   version="1.1"
   id="svg234"
   sodipodi:docname="folder-redux-actions.svg"
   inkscape:version="1.2.1 (9c6d41e410, 2022-07-14)"
   xmlns:inkscape="http://www.inkscape.org/namespaces/inkscape"
   xmlns:sodipodi="http://sodipodi.sourceforge.net/DTD/sodipodi-0.dtd"
   xmlns="http://www.w3.org/2000/svg"
   xmlns:svg="http://www.w3.org/2000/svg"><defs
     id="defs238" /><sodipodi:namedview
     id="namedview236"
     pagecolor="#505050"
     bordercolor="#eeeeee"
     borderopacity="1"
     inkscape:showpageshadow="0"
     inkscape:pageopacity="0"
     inkscape:pagecheckerboard="0"
     inkscape:deskcolor="#505050"
     showgrid="false"
     inkscape:zoom="27.812867"
     inkscape:cx="19.253679"
     inkscape:cy="14.939129"
     inkscape:window-width="1728"
     inkscape:window-height="1058"
     inkscape:window-x="-6"
     inkscape:window-y="-6"
     inkscape:window-maximized="1"
     inkscape:current-layer="svg234" /><path
     d="M10 4H4c-1.11 0-2 .89-2 2v12c0 1.097.903 2 2 2h16c1.097 0 2-.903 2-2V8a2 2 0 0 0-2-2h-8l-2-2z"
     fill="#45403d"
     fill-rule="nonzero"
     id="path224" /><path
     d="m 16.970562,17.112174 c 0.53333,0 0.987647,-0.197529 1.38929,-0.586005 0.388476,-0.401643 0.586005,-0.85596 0.586005,-1.38929 0,-0.533329 -0.197529,-0.987648 -0.586005,-1.38929 -0.401643,-0.388475 -0.85596,-0.586005 -1.38929,-0.586005 -0.533329,0 -0.987648,0.19753 -1.38929,0.586005 -0.388475,0.401642 -0.586005,0.855961 -0.586005,1.38929 0,0.53333 0.19753,0.987647 0.586005,1.38929 0.401642,0.388476 0.855961,0.586005 1.38929,0.586005 m 0,-8.5596098 c 1.810687,0 3.358001,0.6584321 4.641942,1.9423728 1.283942,1.283941 1.942373,2.831256 1.942373,4.641942 v 0.954726 c 0,0.658431 -0.230452,1.218098 -0.658431,1.679 -0.460902,0.441149 -0.987648,0.658432 -1.646079,0.658432 -0.790118,0 -1.441965,-0.329216 -1.935788,-0.987647 -0.658432,0.658431 -1.435382,0.987647 -2.344017,0.987647 -0.902051,0 -1.679,-0.329216 -2.330848,-0.96131 -0.632094,-0.651848 -0.96131,-1.422213 -0.96131,-2.330848 0,-0.902051 0.329216,-1.679 0.96131,-2.330848 0.651848,-0.632094 1.428797,-0.96131 2.330848,-0.96131 0.908635,0 1.679,0.329216 2.330848,0.96131 0.632094,0.651848 0.96131,1.428797 0.96131,2.330848 v 0.954726 c 0,0.269956 0.105348,0.506991 0.302878,0.711106 0.19753,0.204114 0.42798,0.309463 0.684769,0.309463 0.276541,0 0.506992,-0.105348 0.704521,-0.309463 0.19753,-0.204115 0.283126,-0.44115 0.283126,-0.711106 v -0.954726 c 0,-1.441965 -0.506993,-2.679816 -1.547314,-3.720138 -1.040322,-1.040321 -2.278173,-1.5473136 -3.720138,-1.5473136 -1.441965,0 -2.679816,0.5069926 -3.720137,1.5473136 -1.040322,1.040322 -1.547315,2.278173 -1.547315,3.720138 0,1.441965 0.506993,2.679816 1.547315,3.720138 1.040321,1.040321 2.278172,1.547314 3.720137,1.547314 h 3.292158 v 1.316863 h -3.292158 c -1.810686,0 -3.358001,-0.658431 -4.641941,-1.942373 -1.283942,-1.283941 -1.942374,-2.831255 -1.942374,-4.641942 0,-1.810686 0.658432,-3.358001 1.942374,-4.641942 1.28394,-1.2839407 2.831255,-1.9423728 4.641941,-1.9423728 z"
     id="path240"
     style="stroke-width:0.658431;fill:#e1bee7;fill-opacity:1" /></svg>
