<svg width="24" height="24" xmlns="http://www.w3.org/2000/svg" xmlns:undefined="http://www.bohemiancoding.com/sketch/ns">

 <g>
  <title>Layer 1</title>
  <path id="svg_1" fill="#45403d" d="m10,4l-6,0c-1.11,0 -2,0.89 -2,2l0,12a2,2 0 0 0 2,2l16,0a2,2 0 0 0 2,-2l0,-10c0,-1.11 -0.9,-2 -2,-2l-8,0l-2,-2z"/>
  <g stroke="null">
   <!-- Generator: Sketch 3.3.2 (12043) - http://www.bohemiancoding.com/sketch -->
   <title stroke="null">Group</title>
   <desc stroke="null">Created with Sketch.</desc>

   <g stroke="null"  fill-rule="evenodd" fill="none" id="svg_2">
    <g stroke="null" transform="translate(-150 -538)"  id="svg_3">
     <g stroke="null"  transform="translate(0 413)" id="svg_4">
      <g stroke="null" id="svg_5" transform="translate(150 125)">
       <g stroke="null">
        <path stroke="null" fill="#FFFFFF" d="m17.81077,14.14464l-0.00838,-2.14463l-1.25717,0l0.00838,2.14463l0.62858,0.82118l0.62858,-0.82118z"/>
        <path stroke="null" fill="#FFFFFF" d="m16.5536,17.82001l0,2.1526l1.25717,0l0,-2.1526l-0.62858,-0.82118l-0.62858,0.82118z"/>
        <path stroke="null" fill="#00F2E6" d="m17.81077,17.82001l1.32422,1.73803l1.01412,-0.70159l-1.32422,-1.73803l-1.01412,-0.31093l0,1.01252z"/>
        <path stroke="null" fill="#00F2E6" d="m16.5536,14.14464l-1.3326,-1.73803l-1.01412,0.70159l1.32422,1.73803l1.0225,0.31093l0,-1.01252z"/>
        <path stroke="null" fill="#00B9F1" d="m15.5311,14.84623l-2.14557,-0.66173l-0.38553,1.13211l2.14557,0.6697l1.01412,-0.3189l-0.62858,-0.82118z"/>
        <path stroke="null" fill="#00B9F1" d="m18.1963,16.29724l0.62858,0.82118l2.14557,0.66173l0.38553,-1.13211l-2.14557,-0.66173l-1.01412,0.31093z"/>
        <path stroke="null" fill="#D63AFF" d="m19.21041,15.98631l2.14557,-0.6697l-0.38553,-1.13211l-2.14557,0.66173l-0.62858,0.82118l1.01412,0.3189z"/>
        <path stroke="null" fill="#D63AFF" d="m15.14557,15.98631l-2.14557,0.66173l0.38553,1.13211l2.14557,-0.66173l0.62858,-0.82118l-1.01412,-0.31093z"/>
        <path stroke="null" fill="#FB015B" d="m15.5311,17.11842l-1.32422,1.73803l1.01412,0.70159l1.3326,-1.73803l0,-1.01252l-1.0225,0.31093z"/>
        <path stroke="null" fill="#FB015B" d="m18.82488,14.84623l1.32422,-1.73803l-1.01412,-0.70159l-1.32422,1.73803l0,1.01252l1.01412,-0.31093z"/>
       </g>
      </g>
     </g>
    </g>
   </g>
  </g>
 </g>
</svg>