<svg width="24" height="24" xmlns="http://www.w3.org/2000/svg" stroke-miterlimit="1.414" stroke-linejoin="round" fill-rule="evenodd" clip-rule="evenodd">

 <g>
  <title>Layer 1</title>
  <path id="svg_1" d="m19,20l-15,0a2,2 0 0 1 -2,-2l0,-12c0,-1.11 0.89,-2 2,-2l6,0l2,2l7,0c1.097,0 2,0.903 2,2l-17,0l0,10l2.14,-8l17.07,0l-2.28,8.5c-0.23,0.87 -1.01,1.5 -1.93,1.5z" fill="#45403d"/>
  <path id="svg_3" fill="#ff7043" d="m21.02997,19.03845l0,-5.27884l-8.91553,0l0,5.27884l8.91553,0m0,-7.03845a1.11444,0.87981 0 0 1 1.11444,0.87981l0,6.15865a1.11444,0.87981 0 0 1 -1.11444,0.87981l-8.91553,0a1.11444,0.87981 0 0 1 -1.11444,-0.87981l0,-6.15865a1.11444,0.87981 0 0 1 1.11444,-0.87981l8.91553,0m-3.90055,6.15865l0,-0.87981l2.7861,0l0,0.87981l-2.7861,0m-1.9057,-1.75961l-2.23446,-1.75961l1.57693,0l1.83883,1.45168c0.21732,0.17156 0.21732,0.4531 0,0.62466l-1.82768,1.44288l-1.57693,0l2.22331,-1.75961z"/>
 </g>
</svg>