<svg viewBox="0 0 24 24" xmlns="http://www.w3.org/2000/svg">
  <path
    d="M19 20H4C3.46957 20 2.96086 19.7893 2.58579 19.4142C2.21071 19.0391 2 18.5304 2 18V6C2 4.89 2.89 4 4 4H10L12 6H19C20.097 6 21 6.903 21 8H4V18L6.14 10H23.21L20.93 18.5C20.7 19.37 19.92 20 19 20Z"
    fill="#45403d" />
  <path d="M13 20.3478V16.1739L17.5 18.6087L22 16.1739V20.3478L17.5 22.4348L13 20.3478Z" fill="#C5CAE9" stroke="#C5CAE9"
    stroke-linecap="square" stroke-linejoin="round" />
  <path
    d="M13 16.1739L12.7145 15.7635C12.5351 15.8882 12.4575 16.115 12.5229 16.3235C12.5883 16.532 12.7815 16.6739 13 16.6739V16.1739ZM14.5 15.1304H15V14.1735L14.2145 14.72L14.5 15.1304ZM14.5 15.6522L14.7313 16.0955L15 15.9553V15.6522H14.5ZM13.5 16.1739V16.6739H13.6226L13.7313 16.6172L13.5 16.1739ZM13.2855 16.5844L14.7855 15.5409L14.2145 14.72L12.7145 15.7635L13.2855 16.5844ZM14 15.1304V15.6522H15V15.1304H14ZM14.2687 15.2089L13.2687 15.7306L13.7313 16.6172L14.7313 16.0955L14.2687 15.2089ZM13.5 15.6739H13V16.6739H13.5V15.6739Z"
    fill="#C5CAE9" />
  <path
    d="M22 16.1739L22.2855 15.7635C22.4649 15.8882 22.5425 16.115 22.4771 16.3235C22.4117 16.532 22.2185 16.6739 22 16.6739V16.1739ZM20.5 15.1304H20V14.1735L20.7855 14.72L20.5 15.1304ZM20.5 15.6522L20.2687 16.0955L20 15.9553V15.6522H20.5ZM21.5 16.1739V16.6739H21.3774L21.2687 16.6172L21.5 16.1739ZM21.7145 16.5844L20.2145 15.5409L20.7855 14.72L22.2855 15.7635L21.7145 16.5844ZM21 15.1304V15.6522H20V15.1304H21ZM20.7313 15.2089L21.7313 15.7306L21.2687 16.6172L20.2687 16.0955L20.7313 15.2089ZM21.5 15.6739H22V16.6739H21.5V15.6739Z"
    fill="#C5CAE9" />
  <path fill-rule="evenodd" clip-rule="evenodd" d="M19 8.86957V12.2406H21L17.4997 16.1739L14 12.2406H16V8.86957H19Z"
    fill="#C5CAE9" />
</svg>
