<svg width="24" height="24" xmlns="http://www.w3.org/2000/svg" xml:space="preserve" version="1.1" stroke-miterlimit="1.4142" stroke-linejoin="round" fill-rule="evenodd" clip-rule="evenodd">

 <g>
  <title>Layer 1</title>
  <g>
   <path fill="#45403d" d="m19.70648,21.31148l-15,0c-1.11,0 -2,-0.9 -2,-2l0,-12c0,-1.11 0.89,-2 2,-2l6,0l2,2l7,0a2,2 0 0 1 2,2l-17,0l0,10l2.14,-8l17.07,0l-2.28,8.5c-0.23,0.87 -1.01,1.5 -1.93,1.5z"/>
  </g>
  <g>
   <path fill="#cfd8dc" d="m20.3606,10.48407c-3.83174,-2.33827 -8.70033,0.51754 -8.74319,5.12735c-0.04055,4.50221 4.54943,7.40911 8.37247,5.4279l-4.46022,-6.56037l-0.02896,4.81839c0,0.437 -0.99631,0.437 -0.99631,0l0.00869,-6.65113c0,-0.34743 0.84049,-0.37569 1.01658,-0.07393l5.03542,8.12682c3.57397,-2.38816 3.52531,-7.93928 -0.20448,-10.21503zm-0.04518,7.89721l-0.96851,-1.44864l0,-4.28642c0,-0.3276 0.96851,-0.3276 0.96851,0l0,5.73446l0,0.0006z"/>
  </g>
 </g>
</svg>