<svg viewBox="0 0 302 197" xmlns="http://www.w3.org/2000/svg"><path d="m169.424491 197h112.266257c3.565693 0 7.069092-.90979 10.156867-2.639189 3.088274-1.728901 5.652284-4.216126 7.434383-7.211558 1.782099-2.994934 2.718002-6.392448 2.718002-9.850249 0-3.4583-.941883-6.854817-2.726972-9.848257l-75.394848-126.6427144c-1.782099-2.9944359-4.34561-5.4810633-7.432888-7.2099639-3.087277-1.7289005-6.589679-2.6391393-10.154874-2.6391393s-7.067099.9102388-10.154875 2.6391393c-3.087277 1.7289006-5.650788 4.215528-7.432887 7.2099639l-19.278165 32.4031842-37.691693-63.36355854c-1.783594-2.99418675-4.348102-5.48047533-7.436376-7.209067-3.088274-1.72858668-6.591175-2.63859126-10.156868-2.63859126s-7.068594.91000458-10.156868 2.63859126c-3.088274 1.72859167-5.6527823 4.21488025-7.4363763 7.209067l-93.81941916 157.60308874c-1.7848449 2.99344-2.72689054 6.389957-2.72689054 9.848257 0 3.457801.935896 6.855315 2.71804982 9.850249 1.78215382 2.995432 4.34615872 5.482657 7.43418348 7.211558 3.0879749 1.729399 6.5910752 2.639189 10.1569177 2.639189h70.4712511c27.9215439 0 48.5128609-11.894039 62.6814449-35.098675l34.398597-57.772184 18.424492-30.9179242 55.296399 92.8703612h-73.720891zm-79.7927853-30.949812-49.1801016-.010961 73.7208409-123.8200727 36.783699 61.9099867-24.628448 41.379516c-9.409344 15.055884-20.098449 20.541531-36.6959903 20.541531z" fill="#00dc82"/></svg>